<svg xmlns="http://www.w3.org/2000/svg" xmlns:xlink="http://www.w3.org/1999/xlink" version="1.1" width="256" height="256" viewBox="0 0 256 256" xml:space="preserve">

<defs>
</defs>
<g style="stroke: none; stroke-width: 0; stroke-dasharray: none; stroke-linecap: butt; stroke-linejoin: miter; stroke-miterlimit: 10; fill: none; fill-rule: nonzero; opacity: 1;" transform="translate(1.4065934065934016 1.4065934065934016) scale(2.81 2.81)" >
	<path d="M 77.053 88.999 c 4.294 0 8.429 -2.366 10.49 -6.463 c 2.912 -5.789 0.58 -12.842 -5.209 -15.753 L 39.031 45 l 43.303 -21.783 c 5.789 -2.912 8.121 -9.964 5.209 -15.753 c -2.911 -5.789 -9.966 -8.12 -15.753 -5.209 L 7.652 34.519 c -3.96 1.993 -6.46 6.047 -6.46 10.481 s 2.5 8.489 6.46 10.48 L 71.79 87.744 C 73.481 88.595 75.281 88.999 77.053 88.999 z" style="stroke: none; stroke-width: 1; stroke-dasharray: none; stroke-linecap: butt; stroke-linejoin: miter; stroke-miterlimit: 10; fill:  #4255FF; fill-rule: nonzero; opacity: 1;" transform=" matrix(1 0 0 1 0 0) " stroke-linecap="round" />
	<path d="M 77.053 89.998 c 4.845 0 9.206 -2.687 11.383 -7.013 c 1.528 -3.038 1.782 -6.49 0.714 -9.718 c -1.067 -3.229 -3.328 -5.848 -6.367 -7.377 L 41.257 45 l 41.527 -20.889 c 6.271 -3.155 8.807 -10.824 5.653 -17.096 c -1.528 -3.038 -4.148 -5.3 -7.378 -6.367 c -3.23 -1.067 -6.682 -0.813 -9.718 0.714 L 7.203 33.625 C 2.879 35.801 0.193 40.159 0.193 45 s 2.686 9.199 7.01 11.374 l 64.138 32.264 C 73.135 89.54 75.058 89.998 77.053 89.998 z M 77.051 1.999 c 1.134 0 2.272 0.182 3.38 0.548 c 2.723 0.9 4.931 2.806 6.219 5.366 c 2.659 5.287 0.522 11.752 -4.765 14.411 L 38.582 44.106 c -0.338 0.17 -0.551 0.516 -0.551 0.894 s 0.213 0.724 0.551 0.894 l 43.303 21.783 c 2.561 1.288 4.467 3.496 5.366 6.218 c 0.9 2.722 0.686 5.631 -0.602 8.192 c -1.835 3.646 -5.512 5.912 -9.596 5.912 c -1.681 0 -3.301 -0.386 -4.814 -1.147 L 8.101 54.588 c -3.644 -1.833 -5.909 -5.506 -5.909 -9.587 c 0 -4.08 2.265 -7.754 5.909 -9.588 L 72.239 3.149 C 73.758 2.385 75.399 1.999 77.051 1.999 z" style="stroke: none; stroke-width: 1; stroke-dasharray: none; stroke-linecap: butt; stroke-linejoin: miter; stroke-miterlimit: 10; fill: #4255FF; fill-rule: nonzero; opacity: 1;" transform=" matrix(1 0 0 1 0 0) " stroke-linecap="round" />
</g>
</svg>