<svg xmlns="http://www.w3.org/2000/svg" xmlns:xlink="http://www.w3.org/1999/xlink" version="1.1" width="256" height="256" viewBox="0 0 256 256" xml:space="preserve">

<defs>
</defs>
<g style="stroke: none; stroke-width: 0; stroke-dasharray: none; stroke-linecap: butt; stroke-linejoin: miter; stroke-miterlimit: 10; fill: none; fill-rule: nonzero; opacity: 1;" transform="translate(1.4065934065934016 1.4065934065934016) scale(2.81 2.81)" >
	<path d="M 12.94 88.999 c -4.294 0 -8.429 -2.366 -10.49 -6.463 c -2.912 -5.789 -0.58 -12.842 5.209 -15.753 L 50.962 45 L 7.659 23.217 C 1.87 20.305 -0.462 13.253 2.45 7.464 c 2.911 -5.789 9.966 -8.12 15.753 -5.209 l 64.138 32.264 c 3.96 1.993 6.46 6.047 6.46 10.481 c 0 4.434 -2.5 8.489 -6.46 10.48 L 18.203 87.744 C 16.512 88.595 14.712 88.999 12.94 88.999 z" style="stroke: none; stroke-width: 1; stroke-dasharray: none; stroke-linecap: butt; stroke-linejoin: miter; stroke-miterlimit: 10; fill: #4255FF; fill-rule: nonzero; opacity: 1;" transform=" matrix(1 0 0 1 0 0) " stroke-linecap="round" />
	<path d="M 12.94 89.998 c -4.845 0 -9.206 -2.687 -11.383 -7.013 c -1.528 -3.038 -1.782 -6.49 -0.714 -9.718 c 1.067 -3.229 3.328 -5.848 6.367 -7.377 L 48.736 45 L 7.209 24.111 C 0.938 20.956 -1.598 13.287 1.556 7.015 c 1.528 -3.038 4.148 -5.3 7.378 -6.367 s 6.682 -0.813 9.718 0.714 l 64.138 32.263 c 4.324 2.176 7.01 6.534 7.01 11.375 c 0 4.841 -2.686 9.199 -7.01 11.374 L 18.652 88.638 C 16.858 89.54 14.935 89.998 12.94 89.998 z M 12.942 1.999 c -1.134 0 -2.272 0.182 -3.38 0.548 c -2.723 0.9 -4.931 2.806 -6.219 5.366 C 0.684 13.2 2.821 19.665 8.108 22.324 l 43.303 21.782 c 0.338 0.17 0.551 0.516 0.551 0.894 s -0.213 0.724 -0.551 0.894 L 8.108 67.677 c -2.561 1.288 -4.467 3.496 -5.366 6.218 c -0.9 2.722 -0.686 5.631 0.602 8.192 c 1.835 3.646 5.512 5.912 9.596 5.912 c 1.681 0 3.301 -0.386 4.814 -1.147 l 64.138 -32.264 c 3.644 -1.833 5.909 -5.506 5.909 -9.587 c 0 -4.08 -2.265 -7.754 -5.909 -9.588 L 17.754 3.149 C 16.235 2.385 14.594 1.999 12.942 1.999 z" style="stroke: none; stroke-width: 1; stroke-dasharray: none; stroke-linecap: butt; stroke-linejoin: miter; stroke-miterlimit: 10; fill: #4255FF; fill-rule: nonzero; opacity: 1;" transform=" matrix(1 0 0 1 0 0) " stroke-linecap="round" />
</g>
</svg>