<svg width="71" height="25" viewBox="0 0 71 25" fill="none" xmlns="http://www.w3.org/2000/svg">
<path d="M68.7377 2.84547C68.6313 2.49076 67.9999 2.51003 67.7157 2.41395C67.0788 2.19869 66.3597 2.08945 65.6887 2.03353C64.9626 1.97303 64.1955 2.00922 63.4686 2.02786C61.6069 2.07559 59.7318 2.31645 57.8589 2.33446C52.6232 2.3848 47.406 3.17241 42.2504 3.92427C38.8137 4.42545 35.3551 4.90844 31.8997 5.24721C29.0856 5.5231 26.2635 5.62915 23.4624 5.96262C20.4084 6.32618 17.3122 6.44755 14.2756 6.97896C13.019 7.19886 11.7039 7.3067 10.4373 7.46726C9.04496 7.64375 7.66171 7.75456 6.2584 7.83064C5.40275 7.87703 4.62755 8.19389 3.77717 8.26784C3.56157 8.28658 2.49246 8.3186 2.51101 8.67097C2.56719 9.73848 7.80951 9.28418 8.25701 9.28418C13.0106 9.28418 17.7401 9.07977 22.4971 9.07977C26.919 9.07977 31.3552 8.95893 35.789 9.07409C38.6641 9.14877 41.5446 9.0009 44.4194 9.08545C45.8164 9.12654 47.2038 9.18197 48.604 9.18197C49.7181 9.18197 50.6881 8.86729 51.7495 8.56876C52.5092 8.35511 53.3009 8.17422 54.0718 8.00665C54.8208 7.84381 55.597 7.89912 56.3486 7.77386C56.8871 7.68411 57.4598 7.73414 58.0065 7.67166C58.1388 7.65654 59.1143 7.57416 58.9604 7.70005C58.5948 7.99921 58.0001 8.14992 57.558 8.26784C56.4218 8.5708 55.2906 8.87438 54.1569 9.18197C50.0628 10.2928 45.8439 10.2369 41.6543 10.6923C40.3139 10.838 38.9946 11.188 37.6627 11.3282C36.3418 11.4673 34.9784 11.7009 33.6825 11.9925C32.4811 12.2628 31.2846 12.5983 30.06 12.7363C28.9325 12.8634 27.8412 12.9839 26.7271 13.2133C24.2458 13.7241 21.6171 13.6043 19.1188 14.0309C17.9752 14.2261 16.833 14.0643 15.695 14.3488C14.7409 14.5874 13.7446 14.6176 12.788 14.8485C11.9607 15.0482 11.1274 14.9287 10.301 15.087C9.73066 15.1962 9.13248 15.3741 8.56362 15.4163C8.23234 15.4408 7.39949 15.3958 7.12144 15.5696C6.73835 15.809 7.23055 16.0447 7.4394 16.109C8.15113 16.328 9.21457 16.1317 9.93766 16.1317C11.6748 16.1317 13.4032 15.839 15.1386 15.8251C22.1156 15.7693 29.091 15.8251 36.0729 15.8251C36.8659 15.8251 37.6589 15.8251 38.4519 15.8251C38.6984 15.8251 39.3891 15.6705 39.2979 16.0806C39.139 16.7958 38.2245 17.3232 37.623 17.5625C35.9326 18.2348 34.0924 18.9095 32.3028 19.2432C29.5862 19.7496 26.5002 19.6263 23.9734 20.8897C23.1844 21.2842 22.3901 21.5729 21.6 21.9345C21.1856 22.1241 20.3031 22.4479 20.1124 22.877C19.8591 23.447 21.1172 23.3094 21.3218 23.229C22.5461 22.7481 23.7736 22.1791 25.0522 21.855C27.9315 21.125 30.7271 20.384 33.7052 20.0948C35.0219 19.967 36.3581 19.9773 37.6627 19.7598C38.5141 19.618 39.4992 19.4948 40.3029 19.1977C40.7045 19.0493 41.1125 19.1266 41.5293 19.0728C42.0486 19.0058 42.5661 18.9121 43.0851 18.84C44.1206 18.6962 45.0864 18.2058 46.1114 18.0735C48.2695 17.795 50.3584 17.2525 52.3797 16.444C52.5912 16.3594 54.6634 15.4788 53.9639 15.1608C53.0062 14.7254 51.9096 14.7308 50.8751 14.8258C48.7118 15.0244 46.5196 15.3141 44.3399 15.3141C42.4749 15.3141 40.6147 15.3141 38.7585 15.3141C38.3961 15.3141 38.1771 15.5507 38.3441 15.9216C38.5373 16.3509 39.1313 16.3659 39.508 16.5405C40.7134 17.0991 42.1377 17.1754 43.3917 16.7392C43.8888 16.5663 44.3811 16.3455 44.8622 16.1317C44.9297 16.1017 43.5251 15.5194 43.3463 15.4617C40.7277 14.6165 37.5656 15.3215 34.9089 15.5582C33.6964 15.6663 32.2559 15.781 31.0707 15.4163C30.2095 15.1513 30.8609 14.7602 31.4909 14.4965C32.7006 13.9901 33.8908 13.6534 35.1815 13.4517C36.1802 13.2957 37.1157 12.9103 38.1283 12.8556C39.3503 12.7895 40.5058 12.505 41.7053 12.3502C44.1468 12.0352 46.6029 11.4646 49.0184 10.9705C51.7957 10.4024 54.8456 10.7459 57.4898 9.534C58.0115 9.29488 60.7854 8.43234 59.8461 7.39912C59.1396 6.62196 57.4653 6.94169 56.4962 7.05845C54.7075 7.27395 53.0568 8.03187 51.318 8.46656C50.3024 8.72046 49.3152 8.82043 48.2746 8.89808C47.1207 8.98419 46.0259 9.27287 44.8622 9.28985C41.4992 9.33895 38.1319 9.48356 34.7727 9.26146C32.8435 9.13392 30.8687 9.07977 28.9358 9.07977C27.0593 9.07977 25.1914 8.95717 23.3147 8.97757C21.0917 9.00173 18.8256 9.29241 16.6716 9.84628C15.5762 10.128 14.2507 10.0777 13.1286 9.97688C10.4386 9.73507 7.67788 9.89739 4.9752 9.89739C4.36578 9.89739 3.75635 9.89739 3.14693 9.89739C3.12961 9.89739 2.73737 9.86937 2.84032 9.8179C3.07243 9.70184 3.57694 9.79518 3.81692 9.79518C4.55315 9.79518 5.28938 9.79518 6.02561 9.79518C8.42203 9.79518 10.8053 9.4533 13.2081 9.61349C15.169 9.74422 17.0504 10.204 19.0279 10.204C22.9681 10.204 26.9339 10.3365 30.872 10.1983C31.4781 10.177 33.2954 10.1018 32.6889 10.1018C30.996 10.1018 29.3028 10.204 27.6072 10.204C24.2429 10.204 20.9026 10.202 17.546 9.95416C15.9245 9.83446 14.2896 9.7042 12.663 9.69298C10.6665 9.67921 8.58733 9.53697 6.59908 9.74408C5.35647 9.87352 3.9549 9.89932 2.71541 9.71569C2.3595 9.66297 2 9.79644 2 9.33528C2 9.1347 2.57807 8.85134 2.77219 8.79588C3.62203 8.55307 4.56915 8.56058 5.44079 8.51199C8.06517 8.36568 10.7051 8.28505 13.333 8.25648C15.495 8.23298 17.6574 8.09998 19.8058 7.85903C21.2259 7.69976 22.6745 7.84558 24.0756 7.52404C24.6599 7.38993 25.2043 7.12159 25.6881 6.77456C26.0542 6.51193 26.5763 6.43269 26.994 6.26923C27.5088 6.06778 28.1498 6.02057 28.6973 6.01372C29.3886 6.00508 30.0418 5.85515 30.7243 5.815C32.5635 5.70681 34.3394 5.31004 36.1921 5.29831C38.4421 5.28407 40.7017 5.10267 42.9488 4.99171C44.6072 4.90981 46.2603 4.60328 47.9113 4.5829C49.3976 4.56455 50.9362 4.43809 52.4195 4.32739C54.6748 4.15909 56.9278 4.14649 59.1875 4.04918C60.9519 3.9732 62.6595 3.65538 64.3941 3.40758C65.1883 3.29413 65.984 3.26938 66.7845 3.25428C67.4183 3.24232 68.0146 2.94767 68.6355 2.94767" stroke="#F7CF4C" stroke-width="3" stroke-linecap="round"/>
</svg>
